<svg width="512" height="512" viewBox="0 0 512 512" fill="none" xmlns="http://www.w3.org/2000/svg" role="img" aria-labelledby="title desc">
  <title id="title">AegisBridge App Icon</title>
  <desc id="desc">Quadratisches Icon mit Schild, Bruecke und Haken.</desc>

  <defs>
    <linearGradient id="bg" x1="48" y1="30" x2="470" y2="480" gradientUnits="userSpaceOnUse">
      <stop stop-color="#124559"/>
      <stop offset="1" stop-color="#1D6A84"/>
    </linearGradient>
    <linearGradient id="bridge" x1="130" y1="278" x2="382" y2="278" gradientUnits="userSpaceOnUse">
      <stop stop-color="#BEE6F2"/>
      <stop offset="1" stop-color="#F4FAFC"/>
    </linearGradient>
  </defs>

  <rect x="20" y="20" width="472" height="472" rx="106" fill="url(#bg)"/>
  <path d="M256 84L362 126V226C362 307 319 370 256 406C193 370 150 307 150 226V126L256 84Z" fill="#0A2F3D"/>

  <circle cx="256" cy="194" r="42" fill="#E7F3F7"/>
  <path d="M242 193L253 204L274 180" stroke="#1C6E8C" stroke-width="12" stroke-linecap="round" stroke-linejoin="round"/>

  <path d="M130 278C157 232 203 202 256 202C309 202 355 232 382 278" stroke="url(#bridge)" stroke-width="22" stroke-linecap="round"/>
  <path d="M180 318H332" stroke="#E7F3F7" stroke-width="16" stroke-linecap="round"/>
</svg>
